<svg xmlns="http://www.w3.org/2000/svg" viewBox="0 0 1366 768"><defs><style>.cls-1{fill:#333;}.cls-2,.cls-3,.cls-4{fill:none;stroke:#fff;stroke-linecap:round;stroke-miterlimit:10;stroke-width:1.5px;}.cls-3{stroke-dasharray:0 5.04 0 0;}.cls-4{stroke-dasharray:0 5.04 0 5.04 0 0;}.cls-5{opacity:0.6;}.cls-6{fill:gray;}.cls-7{fill:#006837;}.cls-8{fill:#009245;}.cls-9{fill:#39b54a;}.cls-10{fill:#8cc63f;}.cls-11{font-size:14px;font-family:ArialMT, Arial;}.cls-11,.cls-14{fill:#fff;}.cls-12{letter-spacing:-0.04em;}.cls-13{letter-spacing:-0.02em;}.cls-14{font-size:18px;font-family:Arial-BoldMT, Arial;font-weight:700;}.cls-15{letter-spacing:-0.07em;}.cls-16{letter-spacing:-0.09em;}</style></defs><title>places</title><g id="Layer_2" data-name="Layer 2"><rect class="cls-1" x="-13" y="-13" width="1395" height="792"/></g><g id="Layer_6" data-name="Layer 6"><line class="cls-2" x1="273" y1="84" x2="273" y2="84"/><line class="cls-3" x1="273" y1="89.04" x2="273" y2="94.08"/><line class="cls-4" x1="273" y1="94.08" x2="273" y2="618"/><line class="cls-2" x1="273" y1="618" x2="273" y2="618"/><line class="cls-2" x1="546" y1="84" x2="546" y2="84"/><line class="cls-3" x1="546" y1="89.04" x2="546" y2="94.08"/><line class="cls-4" x1="546" y1="94.08" x2="546" y2="618"/><line class="cls-2" x1="546" y1="618" x2="546" y2="618"/><line class="cls-2" x1="819" y1="84" x2="819" y2="84"/><line class="cls-3" x1="819" y1="89.04" x2="819" y2="94.08"/><line class="cls-4" x1="819" y1="94.08" x2="819" y2="618"/><line class="cls-2" x1="819" y1="618" x2="819" y2="618"/><line class="cls-2" x1="1092" y1="84" x2="1092" y2="84"/><line class="cls-3" x1="1092" y1="89.04" x2="1092" y2="94.08"/><line class="cls-4" x1="1092" y1="94.08" x2="1092" y2="618"/><line class="cls-2" x1="1092" y1="618" x2="1092" y2="618"/></g><g id="Layer_7" data-name="Layer 7" class="cls-5"><rect class="cls-6" x="1243" y="396" width="20" height="44"/><rect class="cls-6" x="970" y="210" width="20" height="8"/><rect class="cls-6" x="150" y="414" width="20" height="27"/><rect class="cls-6" x="423" y="452" width="20" height="28"/><rect class="cls-6" x="696" y="360" width="20" height="39"/><rect class="cls-6" x="1243" y="606" width="20" height="32"/><rect class="cls-6" x="970" y="234" width="20" height="7"/><rect class="cls-6" x="150" y="444" width="20" height="28"/><rect class="cls-6" x="423" y="485" width="20" height="27"/><rect class="cls-6" x="696" y="443" width="20" height="35"/><rect class="cls-6" x="970" y="198" width="20" height="8"/><rect class="cls-6" x="423" y="296" width="20" height="38"/><rect class="cls-6" x="696" y="482" width="20" height="34"/><rect class="cls-6" x="150" y="384" width="20" height="27"/><rect class="cls-6" x="423" y="416" width="20" height="31"/><rect class="cls-6" x="696" y="262" width="20" height="46"/><rect class="cls-6" x="1243" y="486" width="20" height="37"/><rect class="cls-6" x="970" y="86" width="20" height="16"/><rect class="cls-6" x="970" y="155" width="20" height="11"/><rect class="cls-6" x="150" y="86" width="20" height="61"/><rect class="cls-6" x="423" y="338" width="20" height="37"/><rect class="cls-6" x="696" y="403" width="20" height="36"/><rect class="cls-6" x="150" y="151" width="20" height="39"/><rect class="cls-6" x="970" y="105" width="20" height="14"/><rect class="cls-6" x="150" y="194" width="20" height="39"/><rect class="cls-6" x="423" y="204" width="20" height="46"/><rect class="cls-6" x="970" y="245" width="20" height="7"/><rect class="cls-6" x="150" y="476" width="20" height="26"/><rect class="cls-6" x="423" y="517" width="20" height="27"/><rect class="cls-6" x="150" y="506" width="20" height="26"/><rect class="cls-6" x="423" y="550" width="20" height="25"/><rect class="cls-6" x="1243" y="527" width="20" height="37"/><rect class="cls-6" x="970" y="140" width="20" height="11"/><rect class="cls-6" x="150" y="238" width="20" height="39"/><rect class="cls-6" x="423" y="86" width="20" height="60"/><rect class="cls-6" x="696" y="86" width="20" height="68"/><rect class="cls-6" x="970" y="222" width="20" height="8"/><rect class="cls-6" x="150" y="281" width="20" height="36"/><rect class="cls-6" x="696" y="556" width="20" height="29"/><rect class="cls-6" x="970" y="184" width="20" height="10"/><rect class="cls-6" x="150" y="353" width="20" height="28"/><rect class="cls-6" x="423" y="380" width="20" height="31"/><rect class="cls-6" x="1243" y="158" width="20" height="62"/><rect class="cls-6" x="970" y="170" width="20" height="10"/><rect class="cls-6" x="423" y="254" width="20" height="38"/><rect class="cls-6" x="696" y="211" width="20" height="47"/></g><g id="Layer_1" data-name="Layer 1"><g class="cls-5"><rect class="cls-6" x="696" y="313" width="20" height="43"/></g><g class="cls-5"><rect class="cls-6" x="696" y="520" width="20" height="32"/></g><g class="cls-5"><rect class="cls-6" x="696" y="589" width="20" height="29"/></g><g class="cls-5"><rect class="cls-6" x="1243" y="642" width="20" height="27"/></g><g class="cls-5"><rect class="cls-6" x="1243" y="568" width="20" height="34"/></g><g class="cls-5"><rect class="cls-6" x="1243" y="444" width="20" height="38"/></g><g class="cls-5"><rect class="cls-6" x="1243" y="347" width="20" height="45"/></g><g class="cls-5"><rect class="cls-6" x="1243" y="287" width="20" height="56"/></g><g class="cls-5"><rect class="cls-6" x="1243" y="224" width="20" height="59"/></g><g class="cls-5"><rect class="cls-6" x="1243" y="86" width="20" height="68"/></g><g class="cls-5"><rect class="cls-6" x="970" y="123" width="20" height="13"/></g><g class="cls-5"><rect class="cls-6" x="150" y="321" width="20" height="28"/></g><g class="cls-5"><rect class="cls-6" x="423" y="150" width="20" height="50"/></g><g class="cls-5"><rect class="cls-6" x="696" y="158" width="20" height="49"/></g></g><g id="PLACE"><rect class="cls-7" x="1243" y="527" width="20" height="37"/><rect class="cls-7" x="970" y="140" width="20" height="11"/><rect class="cls-7" x="150" y="238" width="20" height="39"/><rect class="cls-7" x="423" y="86" width="20" height="60"/><rect class="cls-7" x="696" y="86" width="20" height="68"/><rect class="cls-8" x="970" y="222" width="20" height="8"/><rect class="cls-8" x="150" y="281" width="20" height="36"/><rect class="cls-9" x="696" y="556" width="20" height="29"/><rect class="cls-9" x="970" y="184" width="20" height="10"/><rect class="cls-9" x="150" y="353" width="20" height="28"/><rect class="cls-9" x="423" y="380" width="20" height="31"/><rect class="cls-10" x="1243" y="158" width="20" height="62"/><rect class="cls-10" x="970" y="170" width="20" height="10"/><rect class="cls-10" x="423" y="254" width="20" height="38"/><rect class="cls-10" x="696" y="211" width="20" height="47"/></g><g id="word_titles" data-name="word titles"><text class="cls-11" transform="translate(80.19 161.36)">Bedroom</text><text class="cls-11" transform="translate(99.66 206.36)">Room</text><text class="cls-11" transform="translate(101.98 247.36)">Place</text><text class="cls-11" transform="translate(108.21 291.02)">Park</text><text class="cls-11" transform="translate(87.18 331.02)">Located</text><text class="cls-11" transform="translate(61.52 363.02)">Restaurants</text><text class="cls-11" transform="translate(87.19 394.02)">Subway</text><text class="cls-11" transform="translate(91.87 424.02)">Central</text><text class="cls-11" transform="translate(101.21 454.02)">Close</text><text class="cls-11" transform="translate(90.3 486.02)">Kitchen</text><text class="cls-11" transform="translate(112.09 516.02)">Bed</text><text class="cls-11" transform="translate(72.41 94.36)">Apartment</text><text class="cls-11" transform="translate(372.43 160.36)">Bronx</text><text class="cls-11" transform="translate(371.66 214.36)">Room</text><text class="cls-11" transform="translate(342.84 264.36)">Manhattan</text><text class="cls-11" transform="translate(377.62 306.02)"><tspan class="cls-12">T</tspan><tspan x="8.03" y="0">rain</tspan></text><text class="cls-11" transform="translate(344.41 348.02)">Apartment</text><text class="cls-11" transform="translate(333.52 390.02)">Restaurants</text><text class="cls-11" transform="translate(359.19 426.02)">Subway</text><text class="cls-11" transform="translate(363.87 462.02)">Central</text><text class="cls-11" transform="translate(373.21 495.02)">Close</text><text class="cls-11" transform="translate(362.3 528.02)">Kitchen</text><text class="cls-11" transform="translate(384.09 560.02)">Bed</text><text class="cls-11" transform="translate(373.98 96.36)">Place</text><text class="cls-11" transform="translate(645.66 168.36)">Room</text><text class="cls-11" transform="translate(616.84 220.36)">Manhattan</text><text class="cls-11" transform="translate(892.41 96.36)">Apartment</text><text class="cls-11" transform="translate(1197.34 96.36)">Ferry</text><text class="cls-11" transform="translate(919.66 115.36)">Room</text><text class="cls-11" transform="translate(1163.84 168.36)">Manhattan</text><text class="cls-11" transform="translate(1192.64 234.36)">Island</text><text class="cls-11" transform="translate(1189.52 297.36)">Staten</text><text class="cls-11" transform="translate(1192.66 357.36)">Room</text><text class="cls-11" transform="translate(1186.43 406.36)">Private</text><text class="cls-11" transform="translate(1201.21 454.36)">Free</text><text class="cls-11" transform="translate(1165.41 496.36)">Apartment</text><text class="cls-11" transform="translate(1194.98 537.36)">Place</text><text class="cls-11" transform="translate(1189.53 578.36)">House</text><text class="cls-11" transform="translate(1194.21 616.36)">Close</text><text class="cls-11" transform="translate(1205.88 652.36)">Bus</text><text class="cls-11" transform="translate(902.53 133.36)">Brooklyn</text><text class="cls-11" transform="translate(921.98 150.36)">Place</text><text class="cls-11" transform="translate(900.19 165.36)">Bedroom</text><text class="cls-11" transform="translate(890.84 180.36)">Manhattan</text><text class="cls-11" transform="translate(881.52 194.36)">Restaurants</text><text class="cls-11" transform="translate(925.62 208.36)"><tspan class="cls-12">T</tspan><tspan x="8.03" y="0">rain</tspan></text><text class="cls-11" transform="translate(913.43 220.36)">Private</text><text class="cls-11" transform="translate(928.21 232.36)">Park</text><text class="cls-11" transform="translate(921.21 244.36)">Close</text><text class="cls-11" transform="translate(910.3 255.36)">Kitchen</text><text class="cls-11" transform="translate(633.98 323.02)">Minutes</text><text class="cls-11" transform="translate(618.41 272.02)">Apartment</text><text class="cls-11" transform="translate(626.19 413.02)">Bedroom</text><text class="cls-11" transform="translate(651.62 453.02)"><tspan class="cls-12">T</tspan><tspan x="8.03" y="0">rain</tspan></text><text class="cls-11" transform="translate(632.19 494.02)">Subway</text><text class="cls-11" transform="translate(647.21 370.02)">Close</text><text class="cls-11" transform="translate(607.52 566.02)">Restaurants</text><text class="cls-11" transform="translate(595.04 530.02)">Neighborhood</text><text class="cls-11" transform="translate(649.02 599.02)"><tspan class="cls-13">A</tspan><tspan x="9.08" y="0">way</tspan></text><text class="cls-11" transform="translate(647.98 96.36)">Place</text></g><g id="text_titlea" data-name="text titlea"><text class="cls-14" transform="translate(33.62 32.5)">MANH<tspan class="cls-15" x="53.99" y="0">A</tspan><tspan x="65.65" y="0">T</tspan><tspan class="cls-15" x="76.65" y="0">T</tspan><tspan x="86.31" y="0">AN</tspan></text><text class="cls-14" transform="translate(306.87 32.5)">BRONX</text><text class="cls-14" transform="translate(580.12 32.5)">QUEENS</text><text class="cls-14" transform="translate(853.37 32.5)">BROOK<tspan class="cls-16" x="67" y="0">L</tspan><tspan x="76.34" y="0">YN</tspan></text><text class="cls-14" transform="translate(1126.62 32.5)">S<tspan class="cls-15" x="12.01" y="0">TA</tspan><tspan x="33.33" y="0">TEN ISLAND</tspan></text></g></svg>